<svg xmlns="http://www.w3.org/2000/svg" viewBox="0 0 512 512" width="512" height="512" role="img" aria-label="Sellio">
  <title>Sellio</title>

  <rect width="512" height="512" rx="112" fill="#3A1266"/>
  <g transform="translate(75.7,70.0) scale(1.0449438202247192)">
    <path d="M96.0 225.15159944367173H158.7760778859527Q160.15577190542422 238.60361613351876 168.08901251738527 245.67454798331013Q176.02225312934632 252.7454798331015 188.78442280945757 252.7454798331015Q201.8915159944367 252.7454798331015 209.4798331015299 246.70931849791373Q217.06815020862308 240.67315716272597 217.06815020862308 229.98052851182194Q217.06815020862308 221.01251738525727 211.03198887343532 215.14881780250346Q204.99582753824757 209.28511821974962 196.20027816411684 205.49095966620303Q187.4047287899861 201.69680111265643 171.1933240611961 196.8678720445062Q147.7385257301808 189.62447844228092 132.90681502086233 182.3810848400556Q118.07510431154381 175.13769123783027 107.38247566063978 160.9958275382475Q96.68984700973574 146.85396383866478 96.68984700973574 124.08901251738521Q96.68984700973574 90.28650904033375 121.17941585535465 71.14325452016686Q145.66898470097357 51.99999999999997 184.99026425591097 51.99999999999997Q225.00139082058413 51.99999999999997 249.49095966620303 71.14325452016686Q273.98052851182194 90.28650904033375 275.70514603616135 124.4339360222531H211.894297635605Q211.20445062586927 112.70653685674546 203.27121001390822 105.98052851182194Q195.33796940194713 99.25452016689843 182.92072322670376 99.25452016689843Q172.22809457579973 99.25452016689843 165.67454798331016 104.94575799721832Q159.1210013908206 110.63699582753821 159.1210013908206 121.32962447844224Q159.1210013908206 133.0570236439499 170.1585535465925 139.61057023643946Q181.1961057023644 146.16411682892902 204.6509040333797 153.75243393602221Q228.105702364395 161.68567454798327 242.76495132127957 168.9290681502086Q257.4242002781641 176.1724617524339 268.11682892906816 189.96940194714878Q278.8094575799722 203.76634214186367 278.8094575799722 225.49652294853962Q278.8094575799722 246.19193324061195 268.2892906815021 263.0931849791377Q257.769123783032 279.9944367176634 237.7635605006954 289.9972183588317Q217.75799721835884 299.99999999999994 190.50904033379695 299.99999999999994Q163.9499304589708 299.99999999999994 142.9095966620306 291.37691237830313Q121.8692628650904 282.7538247566064 109.27955493741308 265.85257301808065Q96.68984700973574 248.95132127955492 96.0 225.15159944367173Z" fill="#FFC20F"/>
    <path d="M 12,168 H 40 C 56,168 66,180 66,196 V 236 C 66,268 92,294 124,294 H 204 C 236,294 262,268 262,236 V 246" fill="none" stroke="#3A1266" stroke-width="48" stroke-linecap="round" stroke-linejoin="round"/>
    <path d="M 12,168 H 40 C 56,168 66,180 66,196 V 236 C 66,268 92,294 124,294 H 204 C 236,294 262,268 262,236 V 246" fill="none" stroke="#FFC20F" stroke-width="28" stroke-linecap="round" stroke-linejoin="round"/>
    <circle cx="126" cy="336" r="29" fill="#3A1266"/>
    <circle cx="126" cy="336" r="19" fill="#FFC20F"/>
    <circle cx="212" cy="336" r="29" fill="#3A1266"/>
    <circle cx="212" cy="336" r="19" fill="#FFC20F"/>
    <path d="M 262,40 C 240,-6 166,-6 148,48" fill="none" stroke="#3A1266" stroke-width="42" stroke-linecap="round" stroke-linejoin="round"/>
    <path d="M 262,40 C 240,-6 166,-6 148,48" fill="none" stroke="#FFC20F" stroke-width="22" stroke-linecap="round" stroke-linejoin="round"/>
    <g transform="translate(274,108) rotate(45)"><path d="M -28.0,-62.0 H 28.0 A 34,34 0 0 1 62.0,-28.0 V 28.0 A 34,34 0 0 1 28.0,62.0 H -28.0 A 34,34 0 0 1 -62.0,28.0 V -28.0 A 34,34 0 0 1 -28.0,-62.0 Z" fill="#3A1266"/></g>
    <g transform="translate(274,108) rotate(45)"><path d="M -28.0,-52.0 H 28.0 A 24.0,24.0 0 0 1 52.0,-28.0 V 28.0 A 24.0,24.0 0 0 1 28.0,52.0 H -28.0 A 24.0,24.0 0 0 1 -52.0,28.0 V -28.0 A 24.0,24.0 0 0 1 -28.0,-52.0 Z M -35.5,-26 A 9.5,9.5 0 1 0 -16.5,-26 A 9.5,9.5 0 1 0 -35.5,-26 Z" fill="#FFC20F" fill-rule="evenodd"/></g>
  </g>
</svg>
