<svg width="11" height="15" viewBox="0 0 11 15" fill="none" xmlns="http://www.w3.org/2000/svg">
<path d="M9.1875 2.5C9.89844 2.5 10.5 3.10156 10.5 3.8125V13.4375C10.5 14.1758 9.89844 14.75 9.1875 14.75H1.3125C0.574219 14.75 0 14.1758 0 13.4375V3.8125C0 3.10156 0.574219 2.5 1.3125 2.5H3.5C3.5 1.54297 4.26562 0.75 5.25 0.75C6.20703 0.75 7 1.54297 7 2.5H9.1875ZM2.625 12.3438C2.98047 12.3438 3.28125 12.0703 3.28125 11.6875C3.28125 11.332 2.98047 11.0312 2.625 11.0312C2.24219 11.0312 1.96875 11.332 1.96875 11.6875C1.96875 12.0703 2.24219 12.3438 2.625 12.3438ZM2.625 9.71875C2.98047 9.71875 3.28125 9.44531 3.28125 9.0625C3.28125 8.70703 2.98047 8.40625 2.625 8.40625C2.24219 8.40625 1.96875 8.70703 1.96875 9.0625C1.96875 9.44531 2.24219 9.71875 2.625 9.71875ZM2.625 7.09375C2.98047 7.09375 3.28125 6.82031 3.28125 6.4375C3.28125 6.08203 2.98047 5.78125 2.625 5.78125C2.24219 5.78125 1.96875 6.08203 1.96875 6.4375C1.96875 6.82031 2.24219 7.09375 2.625 7.09375ZM5.25 1.84375C4.86719 1.84375 4.59375 2.14453 4.59375 2.5C4.59375 2.88281 4.86719 3.15625 5.25 3.15625C5.60547 3.15625 5.90625 2.88281 5.90625 2.5C5.90625 2.14453 5.60547 1.84375 5.25 1.84375ZM8.75 11.9062V11.4688C8.75 11.3594 8.64062 11.25 8.53125 11.25H4.59375C4.45703 11.25 4.375 11.3594 4.375 11.4688V11.9062C4.375 12.043 4.45703 12.125 4.59375 12.125H8.53125C8.64062 12.125 8.75 12.043 8.75 11.9062ZM8.75 9.28125V8.84375C8.75 8.73438 8.64062 8.625 8.53125 8.625H4.59375C4.45703 8.625 4.375 8.73438 4.375 8.84375V9.28125C4.375 9.41797 4.45703 9.5 4.59375 9.5H8.53125C8.64062 9.5 8.75 9.41797 8.75 9.28125ZM8.75 6.65625V6.21875C8.75 6.10938 8.64062 6 8.53125 6H4.59375C4.45703 6 4.375 6.10938 4.375 6.21875V6.65625C4.375 6.79297 4.45703 6.875 4.59375 6.875H8.53125C8.64062 6.875 8.75 6.79297 8.75 6.65625Z" fill="#7083B6"/>
</svg>
