<svg xmlns="http://www.w3.org/2000/svg" width="96" height="96" viewBox="0 0 96 96" fill="none">
    <!-- Thùng hàng sau xe -->
    <rect x="8" y="26" width="26" height="24" rx="4" fill="#2EB872"/>
    <rect x="8" y="26" width="26" height="9" rx="4" fill="#1E9E5A"/>
    <path d="M18 30h6v10l-3-2.4L18 40V30z" fill="#FFFFFF" opacity="0.9"/>
    <!-- Thân xe -->
    <path d="M32 52c6 0 10-4 12-10l4-12h10c2 0 3.6 1.4 4 3l4 15h6c4 0 8 3.6 8 8v6h-8" stroke="#1B4332" stroke-width="4" stroke-linecap="round" stroke-linejoin="round" fill="none"/>
    <path d="M44 42c-2 8-8 12-14 12H20" stroke="#1B4332" stroke-width="4" stroke-linecap="round" fill="none"/>
    <!-- Tay lái -->
    <path d="M56 30l-6-8h-8" stroke="#1B4332" stroke-width="4" stroke-linecap="round" fill="none"/>
    <!-- Bánh xe -->
    <circle cx="24" cy="66" r="11" fill="#1B4332"/>
    <circle cx="24" cy="66" r="5" fill="#E8F5E9"/>
    <circle cx="74" cy="66" r="11" fill="#1B4332"/>
    <circle cx="74" cy="66" r="5" fill="#E8F5E9"/>
    <!-- Vệt tốc độ -->
    <path d="M6 58h8M2 64h8" stroke="#2EB872" stroke-width="3" stroke-linecap="round"/>
    <!-- Tia sét điện (xe điện) -->
    <path d="M52 40l-4 8h5l-3 8 8-11h-5l3-5h-4z" fill="#F6C445"/>
</svg>
