<?xml version="1.0" encoding="utf-8"?>
<!-- Generator: Adobe Illustrator 25.0.0, SVG Export Plug-In . SVG Version: 6.00 Build 0)  -->
<svg version="1.1" id="Layer_1" xmlns="http://www.w3.org/2000/svg" xmlns:xlink="http://www.w3.org/1999/xlink" x="0px" y="0px"
	 viewBox="0 0 595.3 841.9" style="enable-background:new 0 0 595.3 841.9;" xml:space="preserve">
<style type="text/css">
	.st0{fill:#40403F;}
	.st1{fill:#787878;}
</style>
<g>
	<path class="st0" d="M108.3,486.5c-1.5-7.7-6.1-9.5-10.1-9.3c0,0,0-0.1,0-0.1c-0.2-1-1.2-1.6-2.2-1.4c-1,0.2-1.7,1.1-1.5,2.1
		c0,0,0,0.1,0,0.1c-3.8,1.3-7.4,4.7-5.9,12.4c1.7,8.9-0.3,10.3-2.8,13.4l30.2-5.7C112.4,496,110,495.4,108.3,486.5z"/>
	<path class="st0" d="M101.8,505.8c2.1-0.4,3.5-2.3,3.4-4.2l-8.1,1.5C97.6,505,99.7,506.2,101.8,505.8z"/>
</g>
<g>
	<path class="st1" d="M93.3,492.3c1.9-8.7-2.1-12.6-6.3-14.2c0,0,0-0.1,0-0.1c0.2-1.1-0.5-2.2-1.7-2.4s-2.3,0.4-2.5,1.5
		c0,0.1,0,0.1,0,0.1c-4.5-0.3-9.8,1.6-11.8,10.3c-2.2,10.1-5,10.6-9,12.7l34.1,7.5C93.4,504.1,91.1,502.4,93.3,492.3z"/>
	<path class="st1" d="M77.8,509.6c2.4,0.5,4.7-0.8,5.4-2.8l-9.2-2C73.9,506.9,75.5,509.1,77.8,509.6z"/>
</g>
</svg>
